<?xml version="1.0" encoding="utf-8"?>
<!-- Generator: Adobe Illustrator 16.0.0, SVG Export Plug-In . SVG Version: 6.00 Build 0)  -->
<!DOCTYPE svg PUBLIC "-//W3C//DTD SVG 1.1//EN" "http://www.w3.org/Graphics/SVG/1.1/DTD/svg11.dtd">
<svg version="1.1" xmlns="http://www.w3.org/2000/svg" xmlns:xlink="http://www.w3.org/1999/xlink" x="0px" y="0px"
	 width="76.622px" height="75.761px" viewBox="0 0 76.622 75.761" enable-background="new 0 0 76.622 75.761" xml:space="preserve">
<g id="Layer_1">
</g>
<g id="Icons">
	<g>
		<polygon fill="#FFFFFF" points="71.097,26.793 8.372,27 9.834,13.532 71.812,19.866 		"/>
		<path fill="#8B5E3C" d="M75.096,70.537c0,4.248-0.78,5.224-5.376,5.224H7.67c-4.595,0-6.074-1.196-6.074-5.444V52.686h73.5V70.537
			z"/>
		<path fill="#603913" d="M76.622,49.055c0,2.124-0.813,2.611-5.604,2.611H6.332C1.542,51.666,0,51.068,0,48.944V29.907
			C0,27.783,0.834,27,5.625,27h65.451c4.791,0,5.546,0.73,5.546,2.854V49.055z"/>
		<rect x="18.596" y="47.186" fill="#F1F2F2" width="4" height="9.25"/>
		<rect x="51.596" y="47.041" fill="#F1F2F2" width="4" height="9.25"/>
		<polygon fill="#FFFFFF" points="66.776,17.4 8.122,11.5 6.31,27 3.783,27 3.783,0.125 66.56,0 		"/>
	</g>
</g>
</svg>
