<?xml version="1.0" encoding="utf-8"?>
<!-- Generator: Adobe Illustrator 16.0.0, SVG Export Plug-In . SVG Version: 6.00 Build 0)  -->
<!DOCTYPE svg PUBLIC "-//W3C//DTD SVG 1.1//EN" "http://www.w3.org/Graphics/SVG/1.1/DTD/svg11.dtd">
<svg version="1.1" xmlns="http://www.w3.org/2000/svg" xmlns:xlink="http://www.w3.org/1999/xlink" x="0px" y="0px"
	 width="67.992px" height="81.418px" viewBox="0 0 67.992 81.418" enable-background="new 0 0 67.992 81.418" xml:space="preserve">
<g id="Layer_1">
</g>
<g id="Icons">
	<g>
		<rect x="3.606" y="44.257" width="64.386" height="37.161"/>
		<rect x="3.606" y="31.966" width="64.386" height="10.45"/>
		<polygon fill="#FFFFFF" points="16.987,42.416 12.299,31.966 7.206,31.966 12.036,42.416 		"/>
		<polygon fill="#FFFFFF" points="29.173,42.416 24.483,31.966 19.392,31.966 24.221,42.416 		"/>
		<polygon fill="#FFFFFF" points="40.983,42.416 36.295,31.966 31.203,31.966 36.032,42.416 		"/>
		<polygon fill="#FFFFFF" points="52.794,42.416 48.105,31.966 43.014,31.966 47.845,42.416 		"/>
		<polygon fill="#FFFFFF" points="64.606,42.416 59.917,31.966 54.825,31.966 59.654,42.416 		"/>
		<rect x="-0.031" y="10.083" transform="matrix(0.9468 -0.3219 0.3219 0.9468 -3.2156 11.1659)" width="64.386" height="10.45"/>
		<polygon fill="#FFFFFF" points="16.031,26.311 8.229,17.926 3.408,19.564 11.345,27.904 		"/>
		<polygon fill="#FFFFFF" points="27.568,22.389 19.767,14.004 14.945,15.643 22.881,23.982 		"/>
		<polygon fill="#FFFFFF" points="38.751,18.587 30.949,10.201 26.128,11.842 34.063,20.181 		"/>
		<polygon fill="#FFFFFF" points="49.935,14.785 42.132,6.4 37.311,8.04 45.246,16.379 		"/>
		<polygon fill="#FFFFFF" points="61.117,10.983 53.314,2.6 48.493,4.238 56.429,12.578 		"/>
		<circle fill="#FFFFFF" cx="35.787" cy="62.759" r="8.981"/>
		<polygon points="41.958,62.584 32.09,68.28 32.09,56.888 		"/>
	</g>
</g>
</svg>
