<?xml version="1.0" encoding="utf-8"?>
<!-- Generator: Adobe Illustrator 16.0.0, SVG Export Plug-In . SVG Version: 6.00 Build 0)  -->
<!DOCTYPE svg PUBLIC "-//W3C//DTD SVG 1.1//EN" "http://www.w3.org/Graphics/SVG/1.1/DTD/svg11.dtd">
<svg version="1.1" xmlns="http://www.w3.org/2000/svg" xmlns:xlink="http://www.w3.org/1999/xlink" x="0px" y="0px"
	 width="97.602px" height="76.396px" viewBox="0 0 97.602 76.396" enable-background="new 0 0 97.602 76.396" xml:space="preserve">
<g id="Layer_1">
</g>
<g id="Icons">
	<g>
		<path fill="#414042" d="M78.018,49.592c0,0-9.908,7.669-25.454,7.669c-15.529,0-23.073-7.669-23.073-7.669l-0.035-15.284
			l18.817,8.337l29.744-12.143V49.592z"/>
		<path fill="#414042" d="M92.12,45.671h-4.066V27.844c0,0,0.521-1.564,2.033-1.564c1.46,0,2.033,1.564,2.033,1.564V45.671z"/>
		<path fill="#414042" d="M97.602,55.366h-4.065V37.538c0,0,0.521-1.563,2.033-1.563c1.46,0,2.033,1.563,2.033,1.563V55.366z"/>
		<path fill="#FFFFFF" d="M43.895,76.396l-21.674-8.941L0.472,61.717c0,0-1.126-0.936,0.1-4.504
			c1.209-3.522,2.507-3.182,2.507-3.182l20.597,8.254l23.273,6.632c0,0,0.651,0.831-0.134,3.662
			C46.051,75.325,43.895,76.396,43.895,76.396z"/>
		<path fill="#FFFFFF" d="M4.545,52.824l19.999,7.95L47.206,67.2l0.068-2.395c0,0-22.835-9.532-25.458-11.929
			c-3.957-3.614-8.491-11.713-8.491-11.713L4.545,52.824z"/>
		<polygon fill="#414042" points="95.569,20.228 48.685,39.889 8.674,22.159 55.352,0 		"/>
	</g>
</g>
</svg>
