<?xml version="1.0" encoding="utf-8"?>
<!-- Generator: Adobe Illustrator 16.0.0, SVG Export Plug-In . SVG Version: 6.00 Build 0)  -->
<!DOCTYPE svg PUBLIC "-//W3C//DTD SVG 1.1//EN" "http://www.w3.org/Graphics/SVG/1.1/DTD/svg11.dtd">
<svg version="1.1" xmlns="http://www.w3.org/2000/svg" xmlns:xlink="http://www.w3.org/1999/xlink" x="0px" y="0px"
	 width="76.191px" height="86.632px" viewBox="0 0 76.191 86.632" enable-background="new 0 0 76.191 86.632" xml:space="preserve">
<g id="Layer_1">
</g>
<g id="Icons">
	<g>
		<polygon fill="#EF4136" points="12.573,57.003 0,73.583 12.169,74.437 19.831,62.76 		"/>
		<polygon fill="#EF4136" points="21.039,63.375 13.555,75.06 19.404,86.632 29.042,66.252 		"/>
		<polygon fill="#EF4136" points="62.61,55.82 76.191,71.587 64.098,73.194 55.726,62.016 		"/>
		<polygon fill="#EF4136" points="54.56,62.704 62.755,73.905 57.634,85.815 46.749,66.074 		"/>
		<polygon fill="#BE1E2D" points="6.979,17.313 36.968,0 66.955,17.313 66.955,51.94 36.968,69.254 6.979,51.94 		"/>
		<circle fill="#FFFFFF" cx="36.967" cy="34.626" r="24.503"/>
		<circle fill="#BE1E2D" cx="36.967" cy="34.625" r="19.405"/>
		<rect x="24.816" y="14.84" fill="none" width="23.62" height="35.492"/>
		<text transform="matrix(1 0 0 1 24.8164 45.6328)" fill="#FFFFFF" font-family="'BritannicBold'" font-size="36.9438">1</text>
	</g>
</g>
</svg>
