<?xml version="1.0" encoding="utf-8"?>
<!-- Generator: Adobe Illustrator 16.0.0, SVG Export Plug-In . SVG Version: 6.00 Build 0)  -->
<!DOCTYPE svg PUBLIC "-//W3C//DTD SVG 1.1//EN" "http://www.w3.org/Graphics/SVG/1.1/DTD/svg11.dtd">
<svg version="1.1" xmlns="http://www.w3.org/2000/svg" xmlns:xlink="http://www.w3.org/1999/xlink" x="0px" y="0px"
	 width="98.352px" height="65.559px" viewBox="0 0 98.352 65.559" enable-background="new 0 0 98.352 65.559" xml:space="preserve">
<g id="Layer_1">
</g>
<g id="Icons">
	<g>
		<path fill="#58595B" d="M86.839,60.496c0,5.232-1.132,5.063-6.366,5.063H5.258C0.026,65.559,0,65.729,0,60.496V6.411
			C0,1.179,0.026,0,5.258,0h76.053c5.233,0,5.527,1.179,5.527,6.411V60.496z"/>
		<rect x="6.976" y="7.107" fill="#FFFFFF" width="72.084" height="51.771"/>
		<polygon fill="#39B54A" points="12.354,51.808 25.589,22.872 43.607,43.719 54.228,27.613 69.289,51.808 		"/>
		<circle fill="#ED1C24" cx="65.611" cy="19.147" r="4.181"/>
		<polygon fill="#FFFFFF" points="79.06,35.365 79.06,18.196 86.839,7.243 86.839,24.412 		"/>
		
			<rect x="82.825" y="0.379" transform="matrix(0.8154 0.5789 -0.5789 0.8154 25.6306 -46.7612)" fill="#3C2415" width="6.625" height="32.859"/>
		<path fill="#3C2415" d="M73.694,41.656c-1.738,1.763-6.571,1.229-6.571,1.229s-1.189-3.672-0.557-6.289
			c0.619-2.558,3.594-4.463,3.594-4.463l6.523,4.632C76.684,36.765,75.889,39.428,73.694,41.656z"/>
		
			<rect x="71.312" y="30.731" transform="matrix(0.8154 0.5789 -0.5789 0.8154 32.5724 -37.4277)" fill="#3C2415" width="7.312" height="3.25"/>
	</g>
</g>
</svg>
